<?xml version="1.0" encoding="UTF-8"?>
<svg width="128px" height="128px" viewBox="0 0 128 128" version="1.1" xmlns="http://www.w3.org/2000/svg" xmlns:xlink="http://www.w3.org/1999/xlink">
    <title>newchain</title>
    <g id="newchain" stroke="none" stroke-width="1" fill="none" fill-rule="evenodd">
        <circle id="Oval" fill="#FFFFFF" cx="63.5" cy="64" r="64"></circle>
        <path d="M63.5,4.75 C96.637085,4.75 123.5,31.612915 123.5,64.75 C123.5,97.887085 96.637085,124.75 63.5,124.75 C30.362915,124.75 3.5,97.887085 3.5,64.75 C3.5,31.612915 30.362915,4.75 63.5,4.75 Z M63.5,10.375 C33.4695168,10.375 9.125,34.7195168 9.125,64.75 C9.125,94.7804832 33.4695168,119.125 63.5,119.125 C93.5304832,119.125 117.875,94.7804832 117.875,64.75 C117.875,34.7195168 93.5304832,10.375 63.5,10.375 Z M84.5727273,27.25 L86.2818181,31.8589386 C80.0863636,34.1634078 77.4159091,37.5153631 77.4159091,43.2765363 L77.4159091,43.2765363 L77.4159091,47.3617319 C83.9318182,48.094972 89.8068181,49.4567039 94.7204546,51.3421788 C103.586364,54.6941341 108.5,59.4078212 108.5,64.75 C108.5,70.0921788 103.586364,74.8058659 94.7204546,78.1578212 C89.6999999,80.0432961 83.825,81.405028 77.4159091,82.1382681 L77.4159091,82.1382681 L77.4159091,86.2234638 C77.4159091,94.0796089 73.4636364,99.3170391 65.3454545,102.25 L65.3454545,102.25 L63.6363637,97.6410614 C69.8318182,95.3365922 72.5022727,91.9846369 72.5022727,86.2234638 L72.5022727,86.2234638 L72.5022727,82.5572626 C69.8318182,82.7667597 67.1613637,82.8715084 64.490909,82.8715084 C61.8204545,82.8715084 59.0431818,82.7667597 56.4795455,82.5572626 L56.4795455,82.5572626 L56.4795455,86.2234638 C56.4795455,94.0796089 52.4204546,99.3170391 44.3022727,102.25 L44.3022727,102.25 L42.5931819,97.6410614 C48.7886364,95.3365922 51.4590909,91.9846369 51.4590909,86.2234638 L51.4590909,86.2234638 L51.4590909,82.1382681 C44.9431818,81.405028 39.0681819,80.0432961 34.1545454,78.1578212 C25.2886364,74.8058659 20.375,69.9874302 20.375,64.75 C20.375,59.5125698 25.2886364,54.6941341 34.1545454,51.3421788 C39.1750001,49.4567039 45.05,48.094972 51.4590909,47.3617319 L51.4590909,47.3617319 L51.4590909,43.2765363 C51.4590909,35.4203911 55.4113636,30.1829609 63.6363637,27.25 L63.6363637,27.25 L65.3454545,31.8589386 C59.15,34.1634078 56.4795455,37.5153631 56.4795455,43.2765363 L56.4795455,43.2765363 L56.4795455,46.9427374 C59.15,46.7332403 61.8204545,46.6284916 64.490909,46.6284916 C67.1613637,46.6284916 69.9386364,46.7332403 72.5022727,46.9427374 L72.5022727,46.9427374 L72.5022727,43.2765363 C72.5022727,35.4203911 76.4545454,30.1829609 84.5727273,27.25 L84.5727273,27.25 Z M64.490909,51.5516761 C61.7136363,51.5516761 59.0431818,51.6564246 56.4795455,51.8659218 L56.4795455,51.8659218 L56.4795455,77.6340783 C59.0431818,77.8435754 61.8204545,77.9483239 64.490909,77.9483239 C67.2681819,77.9483239 69.9386364,77.8435754 72.5022727,77.6340783 L72.5022727,77.6340783 L72.5022727,51.8659218 C69.9386364,51.6564246 67.1613637,51.5516761 64.490909,51.5516761 Z M51.4590909,52.2849162 C45.6909091,53.0181565 40.3499999,54.2751396 35.9704546,55.9511174 C29.3477272,58.4650838 25.3954546,61.7122906 25.3954546,64.75 C25.3954546,67.7877094 29.3477272,71.0349162 35.9704546,73.5488826 C40.4568181,75.2248604 45.6909091,76.4818435 51.4590909,77.2150838 L51.4590909,77.2150838 L51.4590909,52.2849162 Z M77.4159091,52.2849162 L77.4159091,77.2150838 C83.1840909,76.4818435 88.5250001,75.2248604 92.9045454,73.5488826 C99.5272728,71.0349162 103.479545,67.7877094 103.479545,64.75 C103.479545,61.7122906 99.5272728,58.4650838 92.9045454,55.9511174 C88.4181819,54.2751396 83.1840909,53.0181565 77.4159091,52.2849162 L77.4159091,52.2849162 Z" id="Combined-Shape" fill="#131313" fill-rule="nonzero"></path>
    </g>
</svg>