<?xml version="1.0" encoding="UTF-8"?><svg id="_层_2" xmlns="http://www.w3.org/2000/svg" viewBox="0 0 230.44 73.56"><g id="_层_1-2"><g><path d="M80.19,41.96c-1.25-2.36-2.57-4.19-3.94-5.43-.82-.75-1.76-1.54-2.78-2.36l1.17-.83c1.78-1.1,3.18-3.28,4.26-6.67,.78-2.51,.98-5.07,.61-7.59-.37-2.48-1.15-4.77-2.32-6.8-1.19-2.06-2.65-3.74-4.37-4.99-1.7-1.23-3.59-2.16-5.63-2.77-2.03-.61-4.21-.93-6.45-.93h-.29V0h-8.13V3.6h-15.72l-14.99,27.19H11.01v9.64h5.28L.64,68.81l-.64,1.15H8l16.29-29.54h13.89v29.54h14.14v3.6h8.13v-3.62c4.01-.08,7.2-.5,9.51-1.23,2.68-.85,4.95-2.21,6.75-4.03,1.74-1.77,3.04-3.56,3.85-5.32,1.14-2.51,1.7-5.45,1.65-8.75-.05-3.31-.73-6.22-2.01-8.65Zm-6.68,12.09c-.35,2.91-1.4,4.96-3.15,6.08-1.96,1.25-3.91,2.03-5.78,2.3-2.01,.3-4.4,.43-7.11,.4h-11.47v-22.78h14.19c2.22,.03,4.11,.14,5.62,.33,1.26,.16,2.53,.76,3.77,1.8,1.3,1.08,2.33,2.42,3.06,3.97,.94,2.14,1.23,4.8,.87,7.91Zm-27.51-23.25V10.89h13.39c1.51,0,3.09,.17,4.7,.52,1.55,.32,2.91,.86,4.05,1.58,1.06,.67,1.98,1.82,2.73,3.39,.77,1.75,1.04,3.76,.79,5.99-.24,2.19-.9,3.91-1.94,5.11-1.05,1.21-2.43,2.07-4.1,2.54-1.82,.52-3.98,.78-6.44,.78h-13.2Zm-16.41,0l8.57-15.55v15.55h-8.57Z"/><g><path d="M109.2,4.67h5.78l10.69,30.47h-5.3l-5.22-16.59c-1.05-3.3-2.11-6.7-3.05-10.15h-.2c-.97,3.45-1.97,6.85-3.03,10.15l-5.3,16.59h-5.08l10.69-30.47Zm-4.69,18.01h15.01v3.73h-15.01v-3.73Z"/><path d="M131.49,4.67h9.62c6.64,0,11.3,2,11.3,7.46,0,2.95-1.8,5.7-5.64,6.63v.19c4.71,.72,7.38,3.11,7.38,7.26,0,6.04-5.05,8.93-12.25,8.93h-10.4V4.67Zm9.02,12.67c5.02,0,7.05-1.61,7.05-4.71s-2.31-4.16-6.89-4.16h-4.25v8.87h4.09Zm.79,14.01c5.13,0,8-1.63,8-5.41,0-3.48-2.75-4.9-8-4.9h-4.89v10.31h4.89Z"/></g><path id="explorer" d="M108.31,67.38c2.72,0,5.11-.98,6.65-2.82l-1.31-1.51c-1.31,1.51-3.18,2.26-5.27,2.26-3.76,0-6.51-2.39-6.78-5.99h14.4c0-.26,.03-.52,.03-.72,0-5.17-3.5-8.74-8.35-8.74s-8.41,3.63-8.41,8.74,3.67,8.77,9.03,8.77Zm5.5-9.79h-12.21c.29-3.37,2.75-5.73,6.09-5.73s5.83,2.36,6.12,5.73Zm6.48,9.62l5.5-7.2,5.47,7.2h2.65l-6.87-8.84,6.48-8.38h-2.55l-5.17,6.74-5.17-6.74h-2.62l6.48,8.38-6.81,8.84h2.62Zm19.8,6.35v-9.59c1.44,2.23,3.8,3.4,6.55,3.4,4.91,0,8.58-3.54,8.58-8.77s-3.67-8.74-8.58-8.74c-2.85,0-5.24,1.24-6.65,3.54v-3.4h-2.23v23.57h2.32Zm6.38-8.25c-3.67,0-6.42-2.68-6.42-6.71s2.75-6.71,6.42-6.71,6.42,2.72,6.42,6.71-2.78,6.71-6.42,6.71Zm15.81,1.9v-24.29h-2.32v24.29h2.32Zm13.52,.16c5.04,0,8.74-3.67,8.74-8.77s-3.7-8.74-8.74-8.74-8.77,3.63-8.77,8.74,3.73,8.77,8.77,8.77Zm0-2.06c-3.67,0-6.42-2.68-6.42-6.71s2.75-6.71,6.42-6.71,6.38,2.68,6.38,6.71-2.72,6.71-6.38,6.71Zm15.81,1.9v-8.77c0-4.06,2.19-6.35,5.79-6.35,.16,0,.36,.03,.56,.03v-2.26c-3.18,0-5.37,1.21-6.45,3.5v-3.37h-2.23v17.22h2.32Zm17.68,.16c2.72,0,5.11-.98,6.65-2.82l-1.31-1.51c-1.31,1.51-3.18,2.26-5.27,2.26-3.76,0-6.51-2.39-6.78-5.99h14.4c0-.26,.03-.52,.03-.72,0-5.17-3.5-8.74-8.35-8.74s-8.41,3.63-8.41,8.74,3.67,8.77,9.03,8.77Zm5.5-9.79h-12.21c.29-3.37,2.75-5.73,6.09-5.73s5.83,2.36,6.12,5.73Zm9.3,9.62v-8.77c0-4.06,2.19-6.35,5.79-6.35,.16,0,.36,.03,.56,.03v-2.26c-3.18,0-5.37,1.21-6.45,3.5v-3.37h-2.23v17.22h2.32Z"/></g></g></svg>