<?xml version="1.0" encoding="UTF-8"?>
<svg viewBox="0 0 88 22" version="1.1" xmlns="http://www.w3.org/2000/svg" xmlns:xlink="http://www.w3.org/1999/xlink">

    <g id="logo-newton" stroke="none" stroke-width="1" fill="none" fill-rule="evenodd">
        <g id="Newton-Logo-Combination" transform="translate(1.000000, 1.000000)" fill="#131313" fill-rule="nonzero">
            <path d="M81.088015,5.09987516 C79.8801498,5.09987516 78.8333333,5.50249688 78.0817728,6.20037453 L78.0817728,5.09987516 L76.8202247,4.64357054 L76.8202247,14.1186017 L78.0817728,14.1186017 L78.0817728,9.09925094 C78.0817728,7.4619226 79.3433208,6.28089888 81.088015,6.28089888 C82.8327091,6.28089888 84.0942572,7.4619226 84.0942572,9.09925094 L84.0942572,14.0917603 L85.3558052,14.0917603 L85.3558052,9.09925094 C85.3558052,6.79088639 83.5574282,5.09987516 81.088015,5.09987516 Z" id="Path"></path>
            <path d="M70.8077403,5.09987516 C68.0162297,5.09987516 66.0031211,7.00561798 66.0031211,9.60923845 C66.0031211,12.2128589 68.0162297,14.1186017 70.8077403,14.1186017 C73.5992509,14.1186017 75.6123596,12.2128589 75.6123596,9.60923845 C75.6123596,7.00561798 73.5992509,5.09987516 70.8077403,5.09987516 Z M70.8077403,12.9107366 C68.7409488,12.9107366 67.2646692,11.5149813 67.2646692,9.60923845 C67.2646692,7.70349563 68.7677903,6.30774032 70.8077403,6.30774032 C72.8745318,6.30774032 74.3508115,7.70349563 74.3508115,9.60923845 C74.3508115,11.5149813 72.8476904,12.9107366 70.8077403,12.9107366 Z" id="Shape"></path>
            <path d="M65.519975,6.22721598 L65.9225968,5.09987516 L62.406367,5.09987516 L62.406367,2.97940075 L61.144819,2.52309613 L61.144819,5.09987516 L59.8564295,5.09987516 L59.4538077,6.22721598 L61.144819,6.22721598 L61.144819,10.602372 C61.144819,12.696005 62.3258427,14.1186017 64.6073658,14.1186017 C65.036829,14.1186017 65.4931336,14.0649189 65.9225968,13.9307116 L65.4931336,12.7496879 C65.2247191,12.8302122 64.9026217,12.8570537 64.6073658,12.8570537 C63.1310861,12.8570537 62.406367,12.1054931 62.406367,10.602372 L62.406367,6.22721598 L65.519975,6.22721598 Z" id="Path"></path>
            <polygon id="Path" points="54.7297129 11.7297129 52.3139825 5.09987516 51.6697878 5.09987516 49.2808989 11.7297129 46.8651685 5.09987516 45.4962547 5.09987516 48.7709114 14.1186017 49.7908864 14.1186017 51.9918851 7.99875156 54.2197253 14.1186017 55.2397004 14.1186017 58.4875156 5.09987516 57.1186017 5.09987516"></polygon>
            <path d="M40.664794,5.09987516 C37.8732834,5.09987516 35.8601748,7.00561798 35.8601748,9.60923845 C35.8601748,12.2128589 37.8732834,14.1186017 40.664794,14.1186017 C42.3021223,14.1186017 43.6710362,13.474407 44.5299625,12.4007491 L43.2684145,11.9444444 C42.6242197,12.5617978 41.7384519,12.9107366 40.6916355,12.9107366 C38.8395755,12.9107366 37.4706617,11.8102372 37.2022472,10.1997503 L45.4694132,10.1997503 C45.4962547,10.0118602 45.4962547,9.79712859 45.4962547,9.60923845 C45.4694132,7.00561798 43.4563046,5.09987516 40.664794,5.09987516 Z M37.1485643,9.07240949 C37.4169788,7.43508115 38.7858926,6.30774032 40.664794,6.30774032 C42.5436954,6.30774032 43.9126092,7.43508115 44.1810237,9.07240949 L37.1485643,9.07240949 Z" id="Shape"></path>
            <path d="M30.2234707,5.09987516 C29.0156055,5.09987516 27.968789,5.50249688 27.2172285,6.20037453 L27.2172285,5.09987516 L25.9556804,4.64357054 L25.9556804,14.1186017 L27.2172285,14.1186017 L27.2172285,9.09925094 C27.2172285,7.4619226 28.4787765,6.28089888 30.2234707,6.28089888 C31.9681648,6.28089888 33.2297129,7.4619226 33.2297129,9.09925094 L33.2297129,14.0917603 L34.4912609,14.0917603 L34.4912609,9.09925094 C34.4912609,6.79088639 32.6928839,5.09987516 30.2234707,5.09987516 Z" id="Path"></path>
            <path d="M18.6816479,6.17353308 C17.4469413,5.69038702 15.9706617,5.34144819 14.3333333,5.15355805 L14.3333333,4.10674157 C14.3333333,2.63046192 15.0043695,1.77153558 16.5611735,1.18102372 L16.1317104,0 C14.0917603,0.751560549 13.0986267,2.09363296 13.0986267,4.10674157 L13.0986267,5.04619226 C12.454432,4.99250936 11.7565543,4.96566792 11.0855181,4.96566792 C10.4144819,4.96566792 9.74344569,4.99250936 9.07240949,5.04619226 L9.07240949,4.10674157 C9.07240949,2.63046192 9.74344569,1.77153558 11.3002497,1.18102372 L10.8707865,0 C8.80399501,0.751560549 7.81086142,2.09363296 7.81086142,4.10674157 L7.81086142,5.15355805 C6.20037453,5.34144819 4.72409488,5.69038702 3.46254682,6.17353308 C1.23470662,7.03245943 0,8.26716604 0,9.60923845 C0,10.9513109 1.23470662,12.1860175 3.46254682,13.0449438 C4.69725343,13.5280899 6.17353308,13.8770287 7.81086142,14.0649189 L7.81086142,15.1117353 C7.81086142,16.588015 7.13982522,17.4469413 5.58302122,18.0374532 L6.01248439,19.2184769 C8.05243446,18.4669164 9.07240949,17.1248439 9.07240949,15.1117353 L9.07240949,14.1722846 C9.71660424,14.2259675 10.4144819,14.252809 11.0855181,14.252809 C11.7565543,14.252809 12.4275905,14.2259675 13.0986267,14.1722846 L13.0986267,15.1117353 C13.0986267,16.588015 12.4275905,17.4469413 10.8707865,18.0374532 L11.3002497,19.2184769 C13.3401998,18.4669164 14.3333333,17.1248439 14.3333333,15.1117353 L14.3333333,14.0649189 C15.9438202,13.8770287 17.4200999,13.5280899 18.6816479,13.0449438 C20.9094881,12.1860175 22.1441948,10.9781523 22.1441948,9.60923845 C22.1441948,8.24032459 20.9094881,7.03245943 18.6816479,6.17353308 Z M7.81086142,12.8033708 C6.36142322,12.6154806 5.04619226,12.2933833 3.91885144,11.8639201 C2.25468165,11.2197253 1.26154806,10.3876404 1.26154806,9.60923845 C1.26154806,8.83083645 2.25468165,7.99875156 3.91885144,7.3545568 C5.01935081,6.92509363 6.36142322,6.60299625 7.81086142,6.41510612 L7.81086142,12.8033708 Z M13.0986267,12.9107366 C12.454432,12.9644195 11.7833958,12.9912609 11.0855181,12.9912609 C10.4144819,12.9912609 9.71660424,12.9644195 9.07240949,12.9107366 L9.07240949,6.30774032 C9.71660424,6.25405743 10.3876404,6.22721598 11.0855181,6.22721598 C11.7565543,6.22721598 12.454432,6.25405743 13.0986267,6.30774032 L13.0986267,12.9107366 Z M18.2253433,11.8639201 C17.1248439,12.2933833 15.7827715,12.6154806 14.3333333,12.8033708 L14.3333333,6.41510612 C15.7827715,6.60299625 17.0980025,6.92509363 18.2253433,7.3545568 C19.8895131,7.99875156 20.8826467,8.83083645 20.8826467,9.60923845 C20.8826467,10.3876404 19.8895131,11.2197253 18.2253433,11.8639201 Z" id="Shape"></path>
        </g>
    </g>
</svg>
