<?xml version="1.0" encoding="UTF-8"?>
<svg viewBox="0 0 1477 427" version="1.1" xmlns="http://www.w3.org/2000/svg" xmlns:xlink="http://www.w3.org/1999/xlink">
    <g id="logo-newton-explorer" stroke="none" stroke-width="1" fill="none" fill-rule="evenodd">
        <g id="Group-3" transform="translate(61.000000, 31.000000)" fill-rule="nonzero">
            <g id="Group" transform="translate(479.709091, 4.945455)" fill="#131313">
                <path d="M812.637091,37.9810909 C794.833455,37.9810909 779.403636,43.9156364 768.325818,54.2021818 L768.325818,37.9810909 L749.730909,31.2552727 L749.730909,170.914909 L768.325818,170.914909 L768.325818,96.9309091 C768.325818,72.7970909 786.920727,55.3890909 812.637091,55.3890909 C838.353455,55.3890909 856.948364,72.7970909 856.948364,96.9309091 L856.948364,170.519273 L875.543273,170.519273 L875.543273,96.9309091 C875.543273,62.9061818 849.035636,37.9810909 812.637091,37.9810909 Z" id="Path"></path>
                <path d="M661.108364,37.9810909 C619.962182,37.9810909 590.289455,66.0712727 590.289455,104.448 C590.289455,142.824727 619.962182,170.914909 661.108364,170.914909 C702.254545,170.914909 731.927273,142.824727 731.927273,104.448 C731.927273,66.0712727 702.254545,37.9810909 661.108364,37.9810909 Z M661.108364,153.111273 C630.644364,153.111273 608.884364,132.538182 608.884364,104.448 C608.884364,76.3578182 631.04,55.7847273 661.108364,55.7847273 C691.572364,55.7847273 713.332364,76.3578182 713.332364,104.448 C713.332364,132.538182 691.176727,153.111273 661.108364,153.111273 Z" id="Shape"></path>
                <path d="M583.168,54.5978182 L589.102545,37.9810909 L537.274182,37.9810909 L537.274182,6.72581818 L518.679273,-3.65451507e-13 L518.679273,37.9810909 L499.688727,37.9810909 L493.754182,54.5978182 L518.679273,54.5978182 L518.679273,119.086545 C518.679273,149.946182 536.087273,170.914909 569.716364,170.914909 C576.046545,170.914909 582.772364,170.123636 589.102545,168.145455 L582.772364,150.737455 C578.816,151.924364 574.068364,152.32 569.716364,152.32 C547.956364,152.32 537.274182,141.242182 537.274182,119.086545 L537.274182,54.5978182 L583.168,54.5978182 Z" id="Path"></path>
                <polygon id="Path" points="424.122182 135.703273 388.514909 37.9810909 379.019636 37.9810909 343.808 135.703273 308.200727 37.9810909 288.023273 37.9810909 336.290909 170.914909 351.325091 170.914909 383.767273 80.7098182 416.605091 170.914909 431.639273 170.914909 479.511273 37.9810909 459.333818 37.9810909"></polygon>
                <path d="M216.808727,37.9810909 C175.662545,37.9810909 145.989818,66.0712727 145.989818,104.448 C145.989818,142.824727 175.662545,170.914909 216.808727,170.914909 C240.942545,170.914909 261.12,161.419636 273.780364,145.594182 L255.185455,138.868364 C245.690182,147.968 232.634182,153.111273 217.204364,153.111273 C189.905455,153.111273 169.728,136.890182 165.771636,113.152 L287.627636,113.152 C288.023273,110.382545 288.023273,107.217455 288.023273,104.448 C287.627636,66.0712727 257.954909,37.9810909 216.808727,37.9810909 Z M164.980364,96.5352727 C168.936727,72.4014545 189.114182,55.7847273 216.808727,55.7847273 C244.503273,55.7847273 264.680727,72.4014545 268.637091,96.5352727 L164.980364,96.5352727 Z" id="Shape"></path>
                <path d="M62.9061818,37.9810909 C45.1025455,37.9810909 29.6727273,43.9156364 18.5949091,54.2021818 L18.5949091,37.9810909 L-1.46180603e-12,31.2552727 L-1.46180603e-12,170.914909 L18.5949091,170.914909 L18.5949091,96.9309091 C18.5949091,72.7970909 37.1898182,55.3890909 62.9061818,55.3890909 C88.6225455,55.3890909 107.217455,72.7970909 107.217455,96.9309091 L107.217455,170.519273 L125.812364,170.519273 L125.812364,96.9309091 C125.812364,62.9061818 99.3047273,37.9810909 62.9061818,37.9810909 Z" id="Path"></path>
            </g>
            <path d="M346.289719,114.380904 C323.402755,105.429355 296.037906,98.9643474 265.687802,95.4831894 L265.687802,76.0881666 C265.687802,48.7362113 278.126369,32.8223464 306.983846,21.8815642 L299.023163,0 C261.209917,13.9246318 242.800837,38.7900457 242.800837,76.0881666 L242.800837,93.4939563 C230.859813,92.4993398 217.923702,92.0020315 205.485135,92.0020315 C193.046567,92.0020315 180.608,92.4993398 168.169433,93.4939563 L168.169433,76.0881666 C168.169433,48.7362113 180.608,32.8223464 209.465477,21.8815642 L201.504793,0 C163.194006,13.9246318 144.784926,38.7900457 144.784926,76.0881666 L144.784926,95.4831894 C114.932364,98.9643474 87.5675152,105.429355 64.1830083,114.380904 C22.8869642,130.294769 0,153.17095 0,178.036364 C0,202.901778 22.8869642,225.777958 64.1830083,241.691823 C87.0699725,250.643372 114.434821,257.10838 144.784926,260.589538 L144.784926,279.984561 C144.784926,307.336516 132.346358,323.250381 103.488882,334.191163 L111.449565,356.072727 C149.26281,342.148095 168.169433,317.282682 168.169433,279.984561 L168.169433,262.578771 C180.110457,263.573388 193.046567,264.070696 205.485135,264.070696 C217.923702,264.070696 230.36227,263.573388 242.800837,262.578771 L242.800837,279.984561 C242.800837,307.336516 230.36227,323.250381 201.504793,334.191163 L209.465477,356.072727 C247.278722,342.148095 265.687802,317.282682 265.687802,279.984561 L265.687802,260.589538 C295.540364,257.10838 322.905212,250.643372 346.289719,241.691823 C387.585763,225.777958 410.472727,203.399086 410.472727,178.036364 C410.472727,152.673641 387.585763,130.294769 346.289719,114.380904 Z M144.784926,237.216049 C117.91762,233.734891 93.5380275,227.767191 72.6412342,219.810259 C41.7935868,207.87486 23.3845069,192.458304 23.3845069,178.036364 C23.3845069,163.614424 41.7935868,148.197867 72.6412342,136.262468 C93.0404848,128.305536 117.91762,122.337836 144.784926,118.856679 L144.784926,237.216049 Z M242.800837,239.205282 C230.859813,240.199898 218.421245,240.697207 205.485135,240.697207 C193.046567,240.697207 180.110457,240.199898 168.169433,239.205282 L168.169433,116.867445 C180.110457,115.872829 192.549025,115.375521 205.485135,115.375521 C217.923702,115.375521 230.859813,115.872829 242.800837,116.867445 L242.800837,239.205282 Z M337.831493,219.810259 C317.432242,227.767191 292.555107,233.734891 265.687802,237.216049 L265.687802,118.856679 C292.555107,122.337836 316.9347,128.305536 337.831493,136.262468 C368.67914,148.197867 387.08822,163.614424 387.08822,178.036364 C387.08822,192.458304 368.67914,207.87486 337.831493,219.810259 Z" id="Shape" fill="#131313"></path>
            <path d="M529.074618,326.802909 C541.799273,326.802909 552.990836,322.203636 560.196364,313.618327 L554.064,306.566109 C547.931636,313.618327 539.193018,317.144436 529.381236,317.144436 C511.750691,317.144436 498.872727,305.952873 497.646255,289.088873 L565.102255,289.088873 C565.102255,287.8624 565.255564,286.635927 565.255564,285.716073 C565.255564,261.493236 548.851491,244.782545 526.161745,244.782545 C503.472,244.782545 486.761309,261.799855 486.761309,285.716073 C486.761309,309.632291 503.931927,326.802909 529.074618,326.802909 Z M554.830545,280.963491 L497.646255,280.963491 C499.026036,265.172655 510.524218,254.1344 526.161745,254.1344 C541.952582,254.1344 553.450764,265.172655 554.830545,280.963491 Z M585.185745,326.036364 L610.941673,292.308364 L636.544291,326.036364 L648.962327,326.036364 L616.767418,284.642909 L647.122618,245.395782 L635.164509,245.395782 L610.941673,276.977455 L586.718836,245.395782 L574.454109,245.395782 L604.809309,284.642909 L572.921018,326.036364 L585.185745,326.036364 Z M677.937745,355.778327 L677.937745,310.858764 C684.683345,321.283782 695.7216,326.802909 708.599564,326.802909 C731.595927,326.802909 748.766545,310.245527 748.766545,285.716073 C748.766545,261.339927 731.595927,244.782545 708.599564,244.782545 C695.261673,244.782545 684.070109,250.608291 677.477818,261.339927 L677.477818,245.395782 L667.0528,245.395782 L667.0528,355.778327 L677.937745,355.778327 Z M707.833018,317.144436 C690.6624,317.144436 677.784436,304.573091 677.784436,285.716073 C677.784436,267.012364 690.6624,254.287709 707.833018,254.287709 C724.850327,254.287709 737.8816,267.012364 737.8816,285.716073 C737.8816,304.573091 724.850327,317.144436 707.833018,317.144436 Z M781.881309,326.036364 L781.881309,212.281018 L770.996364,212.281018 L770.996364,326.036364 L781.881309,326.036364 Z M845.197964,326.802909 C868.807564,326.802909 886.131491,309.632291 886.131491,285.716073 C886.131491,261.799855 868.807564,244.782545 845.197964,244.782545 C821.588364,244.782545 804.111127,261.799855 804.111127,285.716073 C804.111127,309.632291 821.588364,326.802909 845.197964,326.802909 Z M845.197964,317.144436 C828.027345,317.144436 815.149382,304.573091 815.149382,285.716073 C815.149382,266.859055 828.027345,254.287709 845.197964,254.287709 C862.368582,254.287709 875.093236,266.859055 875.093236,285.716073 C875.093236,304.573091 862.368582,317.144436 845.197964,317.144436 Z M919.246255,326.036364 L919.246255,284.949527 C919.246255,265.9392 929.517964,255.207564 946.381964,255.207564 C947.148509,255.207564 948.068364,255.360873 948.988218,255.360873 L948.988218,244.782545 C934.117236,244.782545 923.845527,250.454982 918.786327,261.186618 L918.786327,245.395782 L908.361309,245.395782 L908.361309,326.036364 L919.246255,326.036364 Z M1002.03316,326.802909 C1014.75782,326.802909 1025.94938,322.203636 1033.15491,313.618327 L1027.02255,306.566109 C1020.89018,313.618327 1012.15156,317.144436 1002.33978,317.144436 C984.709236,317.144436 971.831273,305.952873 970.6048,289.088873 L1038.0608,289.088873 C1038.0608,287.8624 1038.21411,286.635927 1038.21411,285.716073 C1038.21411,261.493236 1021.81004,244.782545 999.120291,244.782545 C976.430545,244.782545 959.719855,261.799855 959.719855,285.716073 C959.719855,309.632291 976.890473,326.802909 1002.03316,326.802909 Z M1027.78909,280.963491 L970.6048,280.963491 C971.984582,265.172655 983.482764,254.1344 999.120291,254.1344 C1014.91113,254.1344 1026.40931,265.172655 1027.78909,280.963491 Z M1071.32887,326.036364 L1071.32887,284.949527 C1071.32887,265.9392 1081.60058,255.207564 1098.46458,255.207564 C1099.23113,255.207564 1100.15098,255.360873 1101.07084,255.360873 L1101.07084,244.782545 C1086.19985,244.782545 1075.92815,250.454982 1070.86895,261.186618 L1070.86895,245.395782 L1060.44393,245.395782 L1060.44393,326.036364 L1071.32887,326.036364 Z" id="explorer" fill="#000000"></path>
        </g>
    </g>
</svg>
