<?xml version="1.0" encoding="UTF-8"?>
<svg width="512px" height="512px" viewBox="0 0 512 512" version="1.1" xmlns="http://www.w3.org/2000/svg" xmlns:xlink="http://www.w3.org/1999/xlink">
    <title>safari-pinned-tab</title>
    <g id="safari-pinned-tab" stroke="none" stroke-width="1" fill="none" fill-rule="evenodd">
        <path d="M253.80484,9.39032006 C391.768244,9.39032006 503.60968,121.231756 503.60968,259.19516 C503.60968,397.158564 391.768244,509 253.80484,509 C115.841436,509 4,397.158564 4,259.19516 C4,121.231756 115.841436,9.39032006 253.80484,9.39032006 Z M253.80484,32.8095238 C128.775506,32.8095238 27.4192037,134.165826 27.4192037,259.19516 C27.4192037,384.224494 128.775506,485.580796 253.80484,485.580796 C378.834174,485.580796 480.190476,384.224494 480.190476,259.19516 C480.190476,134.165826 378.834174,32.8095238 253.80484,32.8095238 Z M341.539328,103.067135 L348.65498,122.256055 C322.860738,131.850514 311.742531,145.806091 311.742531,169.79224 L311.742531,169.79224 L311.742531,186.800601 C338.870958,189.853383 363.331015,195.522837 383.788518,203.372849 C420.700967,217.328427 441.15847,236.953458 441.15847,259.19516 C441.15847,281.436862 420.700967,301.061893 383.788518,315.017471 C362.886286,322.867483 338.42623,328.536937 311.742531,331.589719 L311.742531,331.589719 L311.742531,348.59808 C311.742531,381.306464 295.287583,403.112055 261.488231,415.323185 L261.488231,415.323185 L254.372578,396.134265 C280.16682,386.539806 291.285028,372.584229 291.285028,348.59808 L291.285028,348.59808 L291.285028,333.334166 C280.16682,334.20639 269.048613,334.642502 257.930404,334.642502 C246.812197,334.642502 235.249261,334.20639 224.575781,333.334166 L224.575781,333.334166 L224.575781,348.59808 C224.575781,381.306464 207.676105,403.112055 173.876753,415.323185 L173.876753,415.323185 L166.761101,396.134265 C192.555343,386.539806 203.67355,372.584229 203.67355,348.59808 L203.67355,348.59808 L203.67355,331.589719 C176.545123,328.536937 152.085066,322.867483 131.627564,315.017471 C94.715114,301.061893 74.2576112,281.00075 74.2576112,259.19516 C74.2576112,237.38957 94.715114,217.328427 131.627564,203.372849 C152.529795,195.522837 176.989852,189.853383 203.67355,186.800601 L203.67355,186.800601 L203.67355,169.79224 C203.67355,137.083856 220.128498,115.278265 254.372578,103.067135 L254.372578,103.067135 L261.488231,122.256055 C235.693989,131.850514 224.575781,145.806091 224.575781,169.79224 L224.575781,169.79224 L224.575781,185.056154 C235.693989,184.183931 246.812197,183.747818 257.930404,183.747818 C269.048613,183.747818 280.611549,184.183931 291.285028,185.056154 L291.285028,185.056154 L291.285028,169.79224 C291.285028,137.083856 307.739976,115.278265 341.539328,103.067135 L341.539328,103.067135 Z M257.930404,204.245073 C246.367468,204.245073 235.249261,204.681185 224.575781,205.553408 L224.575781,205.553408 L224.575781,312.836912 C235.249261,313.709135 246.812197,314.145247 257.930404,314.145247 C269.493341,314.145247 280.611549,313.709135 291.285028,312.836912 L291.285028,312.836912 L291.285028,205.553408 C280.611549,204.681185 269.048613,204.245073 257.930404,204.245073 Z M203.67355,207.297856 C179.658222,210.350639 157.421806,215.58398 139.187945,222.561769 C111.614789,233.028452 95.1598423,246.547918 95.1598423,259.19516 C95.1598423,271.842402 111.614789,285.361868 139.187945,295.828551 C157.866534,302.80634 179.658222,308.039681 203.67355,311.092464 L203.67355,311.092464 L203.67355,207.297856 Z M311.742531,207.297856 L311.742531,311.092464 C335.757859,308.039681 357.994276,302.80634 376.228136,295.828551 C403.801292,285.361868 420.256239,271.842402 420.256239,259.19516 C420.256239,246.547918 403.801292,233.028452 376.228136,222.561769 C357.549547,215.58398 335.757859,210.350639 311.742531,207.297856 L311.742531,207.297856 Z" id="Combined-Shape" fill="#131313" fill-rule="nonzero"></path>
    </g>
</svg>